<?xml version="1.0" encoding="UTF-8"?>
<svg version="1.1" xmlns="http://www.w3.org/2000/svg" width="512" height="139">
<path d="M0 0 C0.23232989 9.88360849 0.40969539 19.76656131 0.51812172 29.65235043 C0.5701795 34.24358411 0.64070587 38.83294178 0.75439453 43.4230957 C0.86354965 47.85827938 0.92294192 52.29166651 0.94877243 56.72809029 C0.96716327 58.41512899 1.00308074 60.10207595 1.05730057 61.78834343 C1.46438047 74.98090317 1.46438047 74.98090317 -2.17385864 79.99732971 C-4.67568755 82.27158604 -7.17438407 84.15255133 -10 86 C-11.14030736 86.93391997 -12.27028256 87.8808137 -13.3828125 88.84765625 C-14.28773438 89.57855469 -15.19265625 90.30945313 -16.125 91.0625 C-17.52105469 92.19365234 -17.52105469 92.19365234 -18.9453125 93.34765625 C-19.62335938 93.89292969 -20.30140625 94.43820313 -21 95 C-20.2575 95.58394531 -19.515 96.16789062 -18.75 96.76953125 C-9.33159432 104.40860745 -2.49091871 112.64667351 -1 125 C-0.69713349 129.87774488 -1.01029485 134.2158492 -2 139 C-10.64401449 137.71766377 -19.24100541 136.27091518 -27.828125 134.65234375 C-28.98374939 134.43558487 -30.13937378 134.21882599 -31.33001709 133.99549866 C-33.74349768 133.54198742 -36.15676531 133.08734141 -38.56982422 132.6315918 C-42.28140407 131.9315771 -45.9941734 131.23812215 -49.70703125 130.54492188 C-52.05997049 130.10195886 -54.41283781 129.65861367 -56.765625 129.21484375 C-57.87899231 129.00754135 -58.99235962 128.80023895 -60.13946533 128.58665466 C-61.15852966 128.39297806 -62.17759399 128.19930145 -63.22753906 127.99975586 C-64.12764709 127.83035995 -65.02775513 127.66096405 -65.95513916 127.48643494 C-68 127 -68 127 -69 126 C-68.93347776 123.93478668 -68.79413644 121.87185041 -68.625 119.8125 C-68.4799846 117.9998075 -68.33516842 116.18709856 -68.19189453 114.37426758 C-68.04933905 112.61046094 -67.89787431 110.8473697 -67.74169922 109.0847168 C-66.96886043 99.64267293 -66.8464486 90.2569975 -66.86962891 80.7878418 C-66.87497088 78.20159995 -66.86965915 75.61553337 -66.86328125 73.02929688 C-66.85945973 62.31796248 -67.23889937 51.68401509 -68 41 C-53.11801769 31.44948446 -38.1237668 22.09563972 -23.04101562 12.86572266 C-20.16270336 11.0998217 -17.29111002 9.32357008 -14.421875 7.54296875 C-13.58301758 7.02436279 -12.74416016 6.50575684 -11.87988281 5.97143555 C-10.33551055 5.01658002 -8.79306964 4.05859096 -7.25292969 3.09692383 C-2.22593391 0 -2.22593391 0 0 0 Z M-9.94140625 9.97265625 C-11.51269287 10.94078247 -11.51269287 10.94078247 -13.11572266 11.9284668 C-14.26470712 12.63971641 -15.41363146 13.35106315 -16.5625 14.0625 C-17.73479218 14.78632936 -18.90715626 15.51004229 -20.07958984 16.23364258 C-36.34164174 26.27435918 -36.34164174 26.27435918 -52.50878906 36.46630859 C-54.12442431 37.46095977 -55.7723774 38.40556734 -57.45214844 39.28759766 C-59.52778248 40.40640171 -61.29603954 41.36949124 -63 43 C-63.66923762 46.71256453 -63.66923762 46.71256453 -63 50 C-49.54108119 44.64033493 -36.09462888 39.24957907 -22.66625977 33.81381226 C-21.22049273 33.22895933 -19.77436509 32.64499703 -18.32788086 32.06192017 C-16.29049431 31.2403641 -14.25446075 30.41554188 -12.21875 29.58984375 C-11.04248047 29.11409912 -9.86621094 28.63835449 -8.65429688 28.14819336 C-6.12449556 27.24724539 -6.12449556 27.24724539 -5 26 C-4.84379445 24.58672053 -4.74943827 23.1664541 -4.68359375 21.74609375 C-4.62075195 20.46508789 -4.62075195 20.46508789 -4.55664062 19.15820312 C-4.51732422 18.26037109 -4.47800781 17.36253906 -4.4375 16.4375 C-4.37272461 15.08495117 -4.37272461 15.08495117 -4.30664062 13.70507812 C-4.20021858 11.47021515 -4.09820012 9.23523692 -4 7 C-6.09273906 7 -8.24771302 8.92719374 -9.94140625 9.97265625 Z M-14.40234375 34 C-15.14825272 34.31174667 -15.89416168 34.62349335 -16.66267395 34.94468689 C-19.08904523 35.95974989 -21.51328011 36.97981094 -23.9375 38 C-25.58678887 38.69113542 -27.23620288 39.38197228 -28.88574219 40.07250977 C-32.88435523 41.74743165 -36.88127579 43.42634189 -40.87738037 45.10723877 C-43.78885208 46.33178651 -46.70112187 47.55443247 -49.61328125 48.77734375 C-53.74418092 50.51353516 -57.8730608 52.25441626 -62 54 C-62 56.31 -62 58.62 -62 61 C-55.05003988 60.43689793 -48.32572285 59.39578424 -41.50390625 57.96875 C-40.54854477 57.77277222 -39.59318329 57.57679443 -38.60887146 57.37487793 C-36.6092836 56.96371119 -34.61018676 56.55014968 -32.61157227 56.13427734 C-29.5474762 55.4968747 -26.48191039 54.86696948 -23.41601562 54.23828125 C-21.46605677 53.83636935 -19.51618379 53.43404058 -17.56640625 53.03125 C-16.65081436 52.84268433 -15.73522247 52.65411865 -14.79188538 52.45983887 C-13.9434758 52.28295532 -13.09506622 52.10607178 -12.22094727 51.92382812 C-11.10370018 51.6918573 -11.10370018 51.6918573 -9.96388245 51.4552002 C-7.80531453 50.98724283 -7.80531453 50.98724283 -5 50 C-5 43.73 -5 37.46 -5 31 C-8.36713983 31 -11.33776051 32.70583718 -14.40234375 34 Z M-15.01806641 55.90209961 C-16.47450058 56.19756935 -16.47450058 56.19756935 -17.96035767 56.49900818 C-18.99695526 56.71460892 -20.03355286 56.93020966 -21.1015625 57.15234375 C-22.17497894 57.37193253 -23.24839539 57.5915213 -24.3543396 57.81776428 C-26.61918606 58.28205276 -28.88355091 58.74869598 -31.14746094 59.2175293 C-34.61808478 59.93606831 -38.09013175 60.64736582 -41.5625 61.35742188 C-43.76310772 61.80947306 -45.96363151 62.26193306 -48.1640625 62.71484375 C-49.20470856 62.92842026 -50.24535461 63.14199677 -51.3175354 63.36204529 C-52.28218719 63.56217728 -53.24683899 63.76230927 -54.24072266 63.96850586 C-55.51382797 64.23164833 -55.51382797 64.23164833 -56.81265259 64.50010681 C-59.15903232 64.99916729 -59.15903232 64.99916729 -62 66 C-62 68.64 -62 71.28 -62 74 C-43.19 74 -24.38 74 -5 74 C-5 67.73 -5 61.46 -5 55 C-8.73441018 55 -11.4574645 55.17085525 -15.01806641 55.90209961 Z M-62 78 C-62 80.64 -62 83.28 -62 86 C-57.67825312 87.00386884 -53.35492982 88.00055186 -49.0300293 88.99072266 C-47.56017846 89.32828831 -46.09076955 89.66778443 -44.62182617 90.00927734 C-42.50553905 90.50090381 -40.38773926 90.98547599 -38.26953125 91.46875 C-36.99698486 91.76201172 -35.72443848 92.05527344 -34.41333008 92.35742188 C-29.13399804 93.49464427 -29.13399804 93.49464427 -24.19482422 91.94604492 C-23.6535791 91.46240479 -23.11233398 90.97876465 -22.5546875 90.48046875 C-21.95269531 89.95259766 -21.35070312 89.42472656 -20.73046875 88.88085938 C-20.11816406 88.32205078 -19.50585938 87.76324219 -18.875 87.1875 C-18.25496094 86.64029297 -17.63492188 86.09308594 -16.99609375 85.52929688 C-14.24455706 83.08841755 -11.60280222 80.60280222 -9 78 C-26.49 78 -43.98 78 -62 78 Z M-62 90 C-62.33781115 94.18715129 -62.6694485 98.37476985 -63 102.5625 C-63.09539062 103.74392578 -63.19078125 104.92535156 -63.2890625 106.14257812 C-63.37929687 107.29306641 -63.46953125 108.44355469 -63.5625 109.62890625 C-63.64628906 110.68150635 -63.73007813 111.73410645 -63.81640625 112.81860352 C-64.01263715 116.21898228 -64.03001902 119.59471737 -64 123 C-56.73348572 124.43644427 -49.46657387 125.87085855 -42.19914436 127.30266571 C-38.82478402 127.96753869 -35.45056584 128.63311632 -32.07666016 129.30029297 C-28.19995445 130.06686452 -24.32265227 130.83039175 -20.4453125 131.59375 C-19.23070343 131.83436157 -18.01609436 132.07497314 -16.76467896 132.32287598 C-15.64366791 132.54310425 -14.52265686 132.76333252 -13.36767578 132.99023438 C-12.37728302 133.18564819 -11.38689026 133.38106201 -10.3664856 133.58239746 C-8.07224673 134.05792675 -8.07224673 134.05792675 -6 134 C-5.21825463 121.36178322 -7.86645296 113.83169049 -16.1953125 104.32421875 C-24.96186252 97.05945933 -35.26673662 95.31270396 -46.125 93.1875 C-47.66953443 92.87434418 -49.21380828 92.55990027 -50.7578125 92.24414062 C-54.50237307 91.48122675 -58.25001616 90.73577247 -62 90 Z " fill="#FBFBFB" transform="translate(144,0)"/>
<path d="M0 0 C3.70186446 1.4383757 6.95248265 3.07276227 10.33203125 5.16796875 C11.36642334 5.80677979 12.40081543 6.44559082 13.46655273 7.10375977 C14.57071533 7.79139404 15.67487793 8.47902832 16.8125 9.1875 C17.96865316 9.90385216 19.12498722 10.61991246 20.28149414 11.33569336 C23.85795303 13.55132255 27.42923392 15.77521209 31 18 C32.11793945 18.69577148 33.23587891 19.39154297 34.38769531 20.10839844 C43.31836166 25.66910246 52.23970933 31.2442765 61.12890625 36.87109375 C62.49317749 37.73432251 62.49317749 37.73432251 63.88500977 38.61499023 C66 40 66 40 67 41 C67.00461049 43.90806795 66.94556455 46.79033288 66.84375 49.6953125 C66.78912072 51.53384384 66.73485428 53.37238599 66.6809082 55.2109375 C66.65098785 56.17741211 66.6210675 57.14388672 66.59024048 58.13964844 C65.89970637 80.98402072 66.27065402 103.29078153 69 126 C62.34213189 128.08914899 55.55050794 129.31492195 48.69921875 130.6015625 C47.42649612 130.8428891 46.1537735 131.0842157 44.84248352 131.33285522 C42.16253833 131.84079102 39.48219285 132.34653847 36.80151367 132.85058594 C33.36312445 133.49719496 29.92561159 134.14833014 26.4883604 134.80095863 C23.20485428 135.42397949 19.92077809 136.04396407 16.63671875 136.6640625 C15.4003215 136.89839996 14.16392426 137.13273743 12.89006042 137.37417603 C11.75160172 137.58794891 10.61314301 137.8017218 9.44018555 138.02197266 C8.43537643 138.21135406 7.43056732 138.40073547 6.39530945 138.59585571 C4 139 4 139 2 139 C-0.70520057 133.58959886 0.43510476 124.60820201 1.68359375 118.84375 C5.23841283 108.3415459 11.88983553 101.07344298 21 95 C19.37562145 93.66590963 17.75045282 92.33278126 16.125 91 C14.68740589 89.8204356 13.25209122 88.6376292 11.84191895 87.42541504 C9.96344806 85.89934613 9.96344806 85.89934613 7.51647949 84.60876465 C2.94408542 81.75339904 0.38617552 79.63661233 -0.88064575 74.26782227 C-1.28837446 69.56308056 -1.12565351 64.86993517 -0.9765625 60.15625 C-0.95788895 58.41894619 -0.94366485 56.68158937 -0.9336853 54.94421387 C-0.89567456 50.39225423 -0.79760863 45.84353434 -0.68664551 41.29284668 C-0.58396672 36.64098945 -0.53859614 31.98860359 -0.48828125 27.3359375 C-0.38133899 18.22254217 -0.21088874 9.11154144 0 0 Z M4 7 C4 13.27 4 19.54 4 26 C18.69212066 32.33998168 33.40453862 38.62442876 48.1875 44.75 C49.14709122 45.14862244 49.14709122 45.14862244 50.12606812 45.55529785 C51.93086133 46.30451771 53.73688469 47.05077225 55.54296875 47.796875 C56.57446045 48.22323242 57.60595215 48.64958984 58.66870117 49.08886719 C60.73806203 50.06066886 60.73806203 50.06066886 62 50 C62.33 47.69 62.66 45.38 63 43 C62.42894531 42.65445068 61.85789063 42.30890137 61.26953125 41.95288086 C48.92666493 34.47774471 36.62807266 26.93984533 24.42382812 19.23999023 C17.69811329 15.01071212 10.87917019 10.97519576 4 7 Z M4 31 C4 37.27 4 43.54 4 50 C25.81796297 54.83926273 25.81796297 54.83926273 47.6875 59.4375 C48.47415039 59.60088867 49.26080078 59.76427734 50.07128906 59.93261719 C53.74995702 60.66900681 57.24332944 61.29449999 61 61 C62.35618499 59.87465895 62.35618499 59.87465895 62.0625 56.9375 C62.041875 55.968125 62.02125 54.99875 62 54 C56.43615127 51.68754102 50.87175486 49.37640627 45.30688477 47.06640625 C43.42067233 46.28322607 41.5346004 45.49970741 39.64868164 44.71582031 C30.53959488 40.92984856 21.42942966 37.14568656 12.28515625 33.4453125 C11.10961182 32.96852051 9.93406738 32.49172852 8.72290039 32.00048828 C6.17060066 30.88503663 6.17060066 30.88503663 4 31 Z M4 54 C4 60.6 4 67.2 4 74 C22.81 74 41.62 74 61 74 C61 71.36 61 68.72 61 66 C49.38120779 62.84108202 37.5552065 60.64415305 25.75 58.3125 C23.63666516 57.89284791 21.52338343 57.47292827 19.41015625 57.05273438 C14.27413608 56.03157272 9.13707189 55.01591347 4 54 Z M9 78 C12.18936778 81.98670973 14.77675238 84.63811004 18.6875 87.75 C24 92 24 92 25 93 C33.01955961 92.94037905 40.87968524 90.79827517 48.625 88.9375 C49.81996094 88.65583984 51.01492187 88.37417969 52.24609375 88.08398438 C55.16546291 87.39501325 58.08331873 86.7002464 61 86 C61 83.36 61 80.72 61 78 C43.84 78 26.68 78 9 78 Z M43.35473633 93.66113281 C41.33938866 94.11889259 39.31970873 94.55180532 37.29882812 94.984375 C25.97835195 97.50879049 17.26198762 101.15821733 10.40234375 110.76171875 C6.61313774 116.80967152 4.94838299 122.54102292 4.98046875 129.6640625 C4.98328857 130.47568848 4.9861084 131.28731445 4.98901367 132.12353516 C4.99263916 132.74276855 4.99626465 133.36200195 5 134 C24.71155968 130.54995608 44.36419301 126.8548946 64 123 C63.69195 118.79132858 63.37777479 114.58313588 63.0625 110.375 C62.93198242 108.59029297 62.93198242 108.59029297 62.79882812 106.76953125 C62.66831055 105.03896484 62.66831055 105.03896484 62.53515625 103.2734375 C62.456604 102.21560059 62.37805176 101.15776367 62.29711914 100.06787109 C62.00112384 97.0116041 61.54058596 94.0217369 61 91 C54.93875098 90.75968303 49.21890885 92.3155115 43.35473633 93.66113281 Z " fill="#FBFBFB" transform="translate(0,0)"/>
<path d="M0 0 C1.03125 0.721875 2.0625 1.44375 3.125 2.1875 C10.51030185 8.60860966 16.25691315 19.53335929 17.22314453 29.2421875 C18.23198443 45.28242559 15.48575542 57.41263225 5.328125 70.0859375 C-3.17503892 79.57023572 -15.37947068 84.29028882 -27.859375 85.2109375 C-41.50210315 85.67040762 -53.82778577 81.63249324 -64.25 72.8125 C-74.21822545 63.32862406 -79.07624046 51.21568368 -79.5 37.5 C-79.06703507 23.48636838 -73.69823854 10.58506077 -63.46875 0.88671875 C-44.88492957 -13.31578958 -18.74102351 -14.77508078 0 0 Z M-58.8125 5.25 C-67.44041422 17.21324217 -69.45755367 32.2960902 -67.5 46.671875 C-65.44650547 58.29278721 -61.74294909 69.05847172 -52.0859375 76.46875 C-42.3114687 82.95990303 -30.35247269 83.63322629 -19.0234375 81.41796875 C-10.58295412 78.48389595 -3.31642004 72.07008055 0.9375 64.25 C8.07718794 47.76795443 7.95592595 29.77307494 2 13 C0.377268 9.56710798 -1.4792785 6.83157281 -4 4 C-4.63679688 3.28199219 -5.27359375 2.56398438 -5.9296875 1.82421875 C-12.66266755 -4.92109277 -21.12690224 -8.01195799 -30.625 -8.4375 C-41.97786602 -7.79292336 -51.51717003 -3.51678718 -58.8125 5.25 Z " fill="#FBFBFB" transform="translate(321,32)"/>
<path d="M0 0 C8.37793547 7.60040085 14.04690136 18.85259385 14.75390625 30.09375 C15.32693364 46.22408903 11.7648969 58.35357653 0.875 70.5 C-9.27058242 80.21799082 -22.8053134 83.90687819 -36.546875 83.625 C-50.57591546 82.48558555 -62.10775771 76.66613569 -71.625 66.375 C-80.17787736 55.34435774 -83.04290892 42.10556701 -81.625 28.375 C-79.21499496 16.28435671 -73.55861585 4.96667161 -63.625 -2.625 C-42.70239002 -15.0172468 -19.88097757 -15.30659335 0 0 Z M-62.28125 4.27734375 C-71.69843789 18.97801205 -72.20106112 36.21737055 -68.6015625 52.78515625 C-65.71754168 63.38681679 -60.17963396 71.52678821 -50.84765625 77.33203125 C-41.62462953 81.65988386 -28.87553101 82.30524411 -19.1875 78.9375 C-9.85494245 74.39862815 -3.0816645 67.11267682 0.375 57.375 C5.51642937 41.72081059 5.1960197 23.68937601 -1.91015625 8.65625 C-3.32693308 6.35152112 -4.82700464 4.39472125 -6.625 2.375 C-7.26179688 1.65699219 -7.89859375 0.93898438 -8.5546875 0.19921875 C-15.28766755 -6.54609277 -23.75190224 -9.63695799 -33.25 -10.0625 C-44.68618511 -9.41319279 -55.09836095 -4.80102991 -62.28125 4.27734375 Z " fill="#FBFBFB" transform="translate(497.625,33.625)"/>
<path d="M0 0 C4.49703169 -0.67866789 8.51783636 -0.86634413 13 0 C16.12018027 2.49057247 17.86945658 5.56269315 19.83056641 9.00830078 C21.74261594 12.26477262 23.85816534 15.38617033 25.93945312 18.53613281 C30.39454878 25.2934427 34.72685854 32.1265053 39 39 C43.1738006 35.0988978 46.34069437 30.89133622 49.5625 26.1875 C50.61427637 24.67986578 51.66770913 23.17338599 52.72265625 21.66796875 C53.26035645 20.9001709 53.79805664 20.13237305 54.35205078 19.34130859 C57.03194609 15.53387214 59.74677056 11.75471504 62.5 8 C62.99185791 7.31188232 63.48371582 6.62376465 63.99047852 5.91479492 C66.46057141 2.57405711 67.87079109 0.70209716 72 0 C68.07080524 5.97658119 64.01861947 11.84037819 59.8125 17.625 C59.25731689 18.39118652 58.70213379 19.15737305 58.13012695 19.94677734 C52.7823772 27.31904866 47.39856021 34.66488212 42 42 C45.43716168 48.45828115 49.25419152 54.53100948 53.39453125 60.55859375 C54.6087455 62.3430843 55.82293758 64.12758994 57.03710938 65.91210938 C58.93645313 68.69351204 60.83735913 71.47383887 62.73901367 74.25366211 C64.58633062 76.95689706 66.42814146 79.66381938 68.26953125 82.37109375 C69.1318914 83.62568642 69.1318914 83.62568642 70.01167297 84.90562439 C70.53609482 85.67725418 71.06051666 86.44888397 71.60083008 87.24389648 C72.06540115 87.92290512 72.52997223 88.60191376 73.00862122 89.30149841 C74 91 74 91 74 93 C69.4547749 93.79634985 65.5239761 94.01402757 61 93 C56.95356564 89.43551931 54.47595268 85.05338557 51.8125 80.4375 C51.04836191 79.19273384 50.27961822 77.9507835 49.50634766 76.71166992 C47.99215928 74.27398049 46.50155152 71.82445647 45.03076172 69.36035156 C42.44564662 65.08269778 39.68895173 60.94148037 36.875 56.8125 C36.10018464 55.6532635 35.32656145 54.49322835 34.5546875 53.33203125 C33.78511719 52.17767578 33.78511719 52.17767578 33 51 C28.15110832 56.73902638 23.51698181 62.55079348 19.1875 68.6875 C15.36178714 74.0994655 11.49958916 79.48078858 7.5625 84.8125 C7.05420654 85.51270264 6.54591309 86.21290527 6.0222168 86.93432617 C5.54179932 87.58119385 5.06138184 88.22806152 4.56640625 88.89453125 C4.14302979 89.47050049 3.71965332 90.04646973 3.28344727 90.63989258 C2 92 2 92 -1 93 C0.55684864 88.23893963 3.22552214 84.78175917 6.25 80.875 C7.32771352 79.46161615 8.4044952 78.0475214 9.48046875 76.6328125 C10.33390869 75.51374512 10.33390869 75.51374512 11.20458984 74.37207031 C14.36571739 70.19563365 17.46199782 65.97152801 20.5625 61.75 C21.73034343 60.1613662 22.89830453 58.57281889 24.06640625 56.984375 C24.56084229 56.31116211 25.05527832 55.63794922 25.56469727 54.94433594 C27 53 27 53 28.74584961 51.00097656 C30.21725228 49.1271461 30.21725228 49.1271461 29.75186157 47.1547699 C28.87776546 44.64968645 27.69633319 42.7315601 26.22436523 40.52270508 C25.64383896 39.64532181 25.06331268 38.76793854 24.4651947 37.8639679 C23.83601639 36.9253038 23.20683807 35.98663971 22.55859375 35.01953125 C21.91632339 34.05093674 21.27405304 33.08234222 20.61231995 32.08439636 C18.55940916 28.99016147 16.49888362 25.90109539 14.4375 22.8125 C12.3737384 19.71242378 10.31159954 16.61129061 8.25196838 13.50846863 C6.96927936 11.57692695 5.68396137 9.6471282 4.39585876 7.7191925 C3.81848465 6.85126572 3.24111053 5.98333893 2.64624023 5.08911133 C2.13407455 4.32174149 1.62190887 3.55437164 1.09422302 2.76374817 C0 1 0 1 0 0 Z " fill="#FBFBFB" transform="translate(341,23)"/>
<path d="M0 0 C17.49 0 34.98 0 53 0 C53 0.66 53 1.32 53 2 C39.14 2 25.28 2 11 2 C11 13.22 11 24.44 11 36 C22.88 36 34.76 36 47 36 C47 36.66 47 37.32 47 38 C35.12 38 23.24 38 11 38 C11 56.15 11 74.3 11 93 C7.37 93 3.74 93 0 93 C0 62.31 0 31.62 0 0 Z " fill="#FBFBFB" transform="translate(188,23)"/>
</svg>
